<svg xmlns="http://www.w3.org/2000/svg" viewBox="0 0 787 488"><path d="M140.3 221.7v-12.2h-.5c-8.5 10.1-20.1 15.1-35.2 15.1-15.8 0-28.9-6.2-39.1-19-10.2-12.7-15.3-28.3-15.3-46.6s5.1-33.9 15.3-46.6c10.3-12.7 23.4-19.1 39.1-19.1 14 0 25.9 4.6 35.8 13.6V45.2h30.3v176.5h-30.4zM111.5 121c-10.4 0-18.2 4-23.2 12.2-4.3 6.6-6.5 15.1-6.5 25.7s2.3 19.1 6.5 25.7c5 8.2 12.8 12.2 23.2 12.2 10.5 0 18.3-4 23.6-12.2 4.2-6.6 6.3-15.1 6.3-25.7s-2.1-19.2-6.2-25.7c-5.4-8.1-13.3-12.2-23.7-12.2m261.2-24.7v122.6c0 16.7-6.1 28.6-18.3 35.7-10.1 5.9-25.7 8.7-46.8 8.7-17.9 0-31.3-4.5-40.5-13.6-7.1-7.1-10.6-15.5-10.6-25.3h31.6c2.7 10.4 11.3 15.7 25.8 15.7 19 0 28.5-8.5 28.5-25.3v-13.3c-8.6 9.2-20.6 13.9-35.7 13.9-15.8 0-28.9-5.6-39.1-16.6-10.2-11.1-15.3-25.8-15.3-44.4 0-18.5 5.1-33.2 15.3-44.4 10.2-11 23.3-16.6 39.1-16.6 15 0 26.8 5.1 35.2 15.2h.5V96.3h30.3zm-29.2 57.9c0-8.2-2.1-15.4-6.2-21.6-5.4-7.7-13.2-11.5-23.5-11.5s-18.1 3.8-23.2 11.5c-4.3 6.2-6.5 13.4-6.5 21.6 0 8.3 2.2 15.5 6.5 21.6 5.2 7.8 13 11.6 23.2 11.6 10.3 0 18.1-3.8 23.5-11.6 4.1-6.1 6.2-13.3 6.2-21.6m123.3-57.9V51.6H497v44.6h27.1V118H497v63.4c0 5.5.9 9.3 2.6 11.5 2 2.6 5.8 4 11.1 4l13.4-1.5v24.8c-9.7 2.1-17.7 3-24 3-22.1 0-33.3-10-33.3-30.2v-74.8h-18.3V96.3h18.3zm185.4 38.1v66.2c0 9.1 1.5 16.1 4.7 21.1h-32c-2-3-3-6.8-3-11.4-11.9 9.6-25.6 14.3-40.9 14.3-12.2 0-22.3-3.6-30.5-10.7-8-7.1-12.1-16.8-12.1-28.7 0-21.1 12.7-34.1 38.1-39.1l12.7-2.5c8.4-1.7 19.4-4.1 32.8-7.4v-3.7c0-10.6-8-15.9-23.9-15.9-8.7 0-14.8 1.4-18.2 4.2-3.3 2.8-5.1 7.7-5.1 14.7l-30.3-1.2c0-13.7 5.5-24.2 16.4-31.5 9.6-6.2 22-9.3 37.2-9.3 16.4 0 28.9 2.3 37.2 7.2 11.3 6.2 16.9 17.5 16.9 33.7M622 176.8V159c-3.4 1.6-8.1 3.1-14.4 4.5L591 167c-7 1.4-11.8 3.2-14.6 5.2-4.1 2.7-6.3 6.7-6.3 12.2 0 4.6 1.9 8.4 5.6 11.3 3.6 2.9 8.4 4.3 14 4.3 8.1 0 15.2-1.9 21.3-5.4 7.3-4.5 11-10.4 11-17.8m-482.3 57.8H170V411h-30.3zm159.1 176.3l-41.4-125.3h32l25 86.7h.5l25.1-86.7h31.9l-41.4 125.3zm167.5 0V285.6h30.1V298c8.6-10.2 20-15.3 34.5-15.3 28.9 0 43.3 14.2 43.3 42.6V411h-30.1v-76.6c0-15-6.9-22.5-20.8-22.5-7.9 0-14.1 2.6-19 7.9-5.2 5.8-8 14.2-8 25.1V411h-30zM400.4 45.1h31v366h-31zm-197.9 0h31.1v366h-31.1zM712 285.6h-29.5v12.2h-.5c-8.4-10.1-20.1-15.1-35.2-15.1-15.8 0-29 5.5-39.1 16.6-10.2 11.1-15.4 25.8-15.4 44.3 0 18.5 5.1 33.3 15.4 44.4 10.2 11.1 23.3 16.6 39.2 16.6 15.2 0 27.1-4.6 35.7-13.9v13.4c0 16.9-9.5 25.2-28.5 25.2-14.5 0-23.1-5.2-25.8-15.6h-31.7c0 9.8 3.5 18.3 10.6 25.3 9.1 9.1 22.5 13.6 40.4 13.6 21.1 0 36.7-2.9 46.8-8.7 9.9-5.8 15.7-14.8 17.6-26.8V285.6zm-34.7 79.6c-5.5 7.7-13.3 11.6-23.5 11.6-10.3 0-18-3.9-23.4-11.6-4.3-6.2-6.4-13.3-6.4-21.6 0-8.2 2.2-15.4 6.4-21.5 5.4-7.8 13.1-11.6 23.4-11.6 10.2 0 18 3.9 23.5 11.6 4.1 6.1 6.1 13.3 6.1 21.5s-2.1 15.4-6.1 21.6"/><path d="M681.6 44.6H712v257.3h-30.4z"/></svg>
