<?xml version="1.0" standalone="no"?>
<!DOCTYPE svg PUBLIC "-//W3C//DTD SVG 20010904//EN"
 "http://www.w3.org/TR/2001/REC-SVG-20010904/DTD/svg10.dtd">
<svg version="1.0" xmlns="http://www.w3.org/2000/svg"
 width="700.000000pt" height="700.000000pt" viewBox="0 0 700.000000 700.000000"
 preserveAspectRatio="xMidYMid meet">
<metadata>
Created by potrace 1.14, written by Peter Selinger 2001-2017
</metadata>
<g transform="translate(0.000000,700.000000) scale(0.100000,-0.100000)"
fill="#000000" stroke="none">
<path d="M1464 6971 c-2 -2 -4 -419 -4 -926 l0 -922 -102 -33 c-57 -17 -107
-36 -113 -41 -5 -5 -15 -9 -23 -9 -25 0 -233 -109 -332 -174 -165 -108 -352
-279 -451 -412 -24 -32 -47 -61 -51 -64 -3 -3 -32 -46 -63 -95 -112 -177 -212
-415 -250 -595 -9 -41 -18 -82 -20 -91 -32 -150 -37 -465 -10 -624 55 -320
170 -600 346 -840 235 -322 581 -574 950 -692 l119 -38 0 -447 0 -448 23 -1
c12 0 281 -1 597 -2 l575 -2 0 -235 0 -235 2153 -3 2152 -2 -2 3227 -3 3228
-734 1 -734 0 -20 25 c-10 13 -47 53 -81 89 -33 36 -106 115 -161 174 -55 60
-117 127 -138 150 l-37 40 -1791 1 c-985 0 -1793 -2 -1795 -4z m696 -2285
c145 -31 187 -42 260 -68 372 -131 690 -435 841 -803 44 -108 82 -249 98 -360
14 -99 6 -354 -14 -454 -137 -689 -743 -1180 -1438 -1165 -324 8 -641 125
-882 327 -69 58 -165 156 -204 207 -14 19 -33 43 -42 52 -8 10 -40 59 -70 110
-250 419 -272 930 -59 1363 60 121 76 147 141 233 231 307 596 521 954 558 33
4 62 9 65 11 6 7 316 -4 350 -11z"/>
</g>
</svg>
