<svg version="1.0" xmlns="http://www.w3.org/2000/svg" width="682.667" height="682.667" viewBox="0 0 512 512"><path d="M32 1.4C17.3 5.5 5.3 17.6 1.4 32.4.3 36.6 0 64.2 0 191.2c0 108.7.3 155.3 1.1 159 1.4 6.7 6.1 15.6 10.3 19.7l3.3 3.2L20 367c4.5-5.2 5.2-6.5 4.2-7.8-3.7-5.1-5.3-8.1-6.2-11.4-.7-2.3-.9-57.3-.8-158l.3-154.3 2.2-4c2.5-4.7 7.4-9.5 12.3-12.1 3.4-1.8 10.9-1.9 224-1.9h220.5l4 2.2c4.7 2.5 9.5 7.4 12.1 12.3 1.8 3.4 1.9 9.3 1.9 160v156.5l-2.2 4c-2.5 4.7-7.4 9.5-12.3 12.1-3.3 1.8-7.6 1.9-79.7 2.2l-76.3.2v17h74.5c50.6 0 76.1-.4 79.7-1.1 15.7-3.3 29.3-17 32.7-32.7 1.6-7.5 1.6-308.9 0-316.4-3.3-15.3-15.8-28.3-31.3-32.4C472.4-.5 39-.5 32 1.4z"/><path d="M43 42.5V51h17V34H43v8.5zM77 42.5V51h17V34H77v8.5zM111 42.5V51h17V34h-17v8.5zM43 76.5V85h426V68H43v8.5zM95.5 120.1c-8 .8-18.7 4.6-25.7 9-2.7 1.7-7.7 6.2-11.1 10C48 150.6 43 163.6 43 179.9c0 10.4-.7 9.8 10 7.8l6.5-1.2.6-9.1c1.1-18.4 11.4-32.1 28.6-38.4 5.3-1.9 7.7-2.2 15.6-1.8 8.5.3 10.3.8 17 4.1 5.1 2.5 9 5.4 12.1 8.8 2.5 2.8 5 4.9 5.4 4.7 2.4-.9 13.2-8.4 13.2-9.1 0-.5-3.5-4.3-7.7-8.5-13.6-13.5-29.3-19-48.8-17.1zM249 120.1c-23.5 2.5-43.5 19.7-50.6 43.4-2.8 9.3-2.4 23.8.9 34 5 15.1 15.9 27.8 30 34.9 32.6 16.4 72-.1 83.4-34.9 3.3-10.2 3.7-24.7.9-34-8.6-28.9-34.8-46.5-64.6-43.4zm25.3 20.7c16.8 8.3 26.6 26.7 23.7 44.4-3.9 24.8-27.1 40.8-51.2 35.4-32.5-7.2-44.5-47.7-21.2-71.1 9.5-9.5 17.6-12.6 32-12.2 9 .2 10.7.6 16.7 3.5z"/><path d="m261.5 170-14 14-5.5-5.5-5.6-5.5-5.9 6-6 6.1 10.1 9.9c8 8 10.7 10 12.9 10 2.4 0 6.1-3.2 21.4-18.5l18.6-18.5-6-6-6-6-14 14zM401.7 120.2c-28.8 3.4-51.7 29.5-51.7 58.8.1 28.4 19.8 52.6 47.7 58.5 8.9 1.9 15.8 1.9 24.6-.1 13.8-3.1 26.1-10.9 34.2-21.6 8.7-11.4 12.5-22.7 12.5-36.6 0-36.1-31.1-63.3-67.3-59zm21.6 18.7c25.2 8.7 36.4 38.9 23 61.9-8.5 14.5-26.9 23.2-43 20.5-24.9-4.3-41-28.5-34.9-52.3 3.8-14.7 13.5-25.1 28.1-30.2 7-2.4 19.6-2.4 26.8.1z"/><path d="M415.3 170.2 401 184.5l-5.5-5.5-5.5-5.4-6 5.9-6 5.9 8.2 8.4c9.4 9.4 12.7 11.6 16.7 10.7 1.7-.4 9-6.9 20.6-18.5l18-18-6-6-6-6-14.2 14.2zM111 172.9c-24.5 6.6-42.7 25.1-49 49.7-1.7 6.7-2 11.1-2 33.4 0 22.2.3 26.7 1.9 33.3 2.6 10.2 6.2 17.3 13.1 26.5 7.9 10.6 9.3 13.6 9.8 21.8.5 8.2-.7 12.7-5 19.7-4.4 6.9-9 9.6-31.9 18.7-11.2 4.5-23 9.6-26.2 11.3C15.5 390.6 8 398 4.9 404.2c-4.6 9-4.9 12.7-4.9 58.6v43.4l2.9 2.9 2.9 2.9h242.7l9.5-2.4c21.7-5.4 39.7-17.4 50.6-33.7l4.6-6.9h49l6.7-6.4 6.6-6.5 6.7 6.5 6.6 6.4h24.4l6.6-6.4 6.7-6.4 6.8 6.4 6.7 6.4h11.8c8.5 0 12.3-.4 13.8-1.4 1.1-.8 6.1-7.7 11.2-15.3 6.8-10.3 9.2-14.7 9.2-17.1 0-4.1-17.8-31.3-21.6-33.1-1.8-.8-23.9-1.1-77.2-1.1h-74.7l-3-5.1c-3.8-6.5-13.9-16.7-21.7-22-25.7-17.5-58.3-20.1-83.8-6.8l-8 4.1-4.2-1.7c-9.5-3.8-16.8-11.5-19.8-20.9-1.7-5.1-.8-17.1 1.5-21.6 1-1.9 4.4-6.9 7.5-11.2 6.9-9.2 10.5-16.3 13.1-26.5 1.6-6.5 1.9-11.1 1.9-32 0-28.6-.9-34-7.7-48.2-3.8-7.9-5.9-10.8-13.1-18.1-7.1-7.1-10.3-9.5-17.2-12.8-4.7-2.3-11.2-4.9-14.5-5.7-8.1-2-24.2-1.9-32.5.4zm31.2 17.1c13.3 4.1 25.1 14.4 31.2 27.4 4.9 10.3 5.6 15.2 5.6 39.9 0 29.4-1.3 34.3-12.6 49.3-2.9 3.9-6.8 10.1-8.5 13.9-2.7 5.8-3.3 8.2-3.7 16.5-.6 12.2 1.8 20.9 8.1 30.2 3.8 5.6 13.9 14.7 17.9 16 1 .4.7 1.4-1.2 3.9-12.5 17.2-18.2 35.5-16.6 53.6 1.6 18.9 8.6 34.4 22 48l6 6.3H16.9l.3-38.8.3-38.8 2.6-4.9c1.4-2.7 4.3-6.4 6.6-8.1C29 402.7 41 397.2 54 392c26.5-10.6 32.6-14.4 39.7-24.8 6.3-9.3 8.7-18 8.1-30.2-.4-8.6-.9-10.7-4-17.2-1.9-4-5.4-9.6-7.7-12.3-5-5.9-9.2-13.8-11.5-21.4-2.2-7.6-2.3-50.9-.1-59.4 6-23 25.7-38.5 49.1-38.6 5.5-.1 10.3.6 14.6 1.9zM255 377.6c3.6.8 10.3 3.3 15 5.7 10.8 5.3 23.1 17 27.9 26.4 1.7 3.4 4 6.7 5 7.3 1.3.7 27.2 1 77.5 1h75.5l5.1 7.5c2.8 4.1 5.3 8.1 5.6 8.9.3.8-1.9 5-4.8 9.5l-5.3 8.1H452c-4.3 0-4.9-.4-11-6.6-8.3-8.3-12.1-10.8-15.8-9.9-1.7.3-6 3.8-10.7 8.5l-8 8h-10.9l-8.7-8.5c-11.3-11.1-11.5-11.1-22.8 0l-8.7 8.5h-24.7c-15.9 0-25.5.4-27 1.1-1.5.7-4.1 4-6.3 8.2-6.6 12.2-19.3 23.2-33 28.5-24.5 9.7-49.4 5.1-66.9-12.2-19.4-19.2-23.6-44.8-11.4-69.5 12.4-25.2 39.2-37 68.9-30.5z"/><path d="M212.2 411.5c-17.5 7.6-21.3 30.7-6.9 43 13.2 11.3 33.4 6.4 40.2-9.8 1.9-4.6 2-14.7.1-19.1-2-4.9-8.5-11.6-13.1-13.7-4.9-2.2-15.6-2.4-20.3-.4zm15.2 17.6c4.8 3.8 2.8 12.4-3.4 14.4-5.1 1.6-11.9-4.8-10.4-9.8 1.9-6.4 8.7-8.7 13.8-4.6zM213 264.5v8.5h86v-17h-86v8.5zM367 264.5v8.5h85v-17h-85v8.5zM213 298.5v8.5h86v-17h-86v8.5zM367 298.5v8.5h85v-17h-85v8.5z"/></svg>
