<svg version="1.0" xmlns="http://www.w3.org/2000/svg" width="682.667" height="682.667" viewBox="0 0 512 512"><path d="M164.3 1.5c-23.4 6.3-39.6 28.1-38.1 51.2l.5 7.3h-10.2c-16.7 0-25.9 4.2-32 14.7l-3 5.1-29.5.4c-27.7.3-29.8.4-34.1 2.4-6 2.8-12.5 9.3-15.3 15.3l-2.1 4.6v387l2.1 4.6c2.8 6 9.3 12.5 15.3 15.3l4.6 2.1h307l4.6-2.1c6-2.8 12.5-9.3 15.3-15.3l2.1-4.6v-387l-2.1-4.6c-2.8-6-9.3-12.5-15.3-15.3-4.3-2-6.4-2.1-34.1-2.4l-29.5-.4-3-5.1c-6.1-10.5-15.3-14.7-32-14.7h-10.2l.5-7.3c2-32.4-30.5-59.5-61.5-51.2zm23.9 21.3c13.9 6.1 21 22.6 15.8 36.7-3.5 9.5-3.7 13.6-.7 17.1l2.5 2.9 20.1.5 20.1.5 2.7 2.8 2.8 2.7.3 17 .3 17H99.9l.3-17 .3-17 2.8-2.7 2.7-2.8 20.1-.5 20.1-.5 2.4-2.8c3-3.5 3.1-7.9.4-14.1-7.3-16.5.5-34.8 17.5-40.9 6.2-2.2 15.3-1.8 21.7 1.1zM80 109.9v10l-17 .3-17 .3-2.7 2.8-2.8 2.7v340l2.8 2.7 2.7 2.8 129.5.3 129.4.2 3.3-2.9 3.3-2.9V125.8l-3.3-2.9-3.2-2.9h-33V99.9l27 .3 27 .3 2.7 2.8 2.8 2.7v380l-2.8 2.7-2.7 2.8H26l-2.7-2.8-2.8-2.7V296.1c0-188.5 0-189.9 2-192.1 1.1-1.2 2.9-2.6 4-3.1 1.1-.4 13.6-.8 27.8-.8L80 100v9.9zM292 256v115.9l-37.1.3-37.1.3-2.9 3.3-2.9 3.2v73H60V140h232v116zm-15 136.3c0 .1-10.1 10.3-22.5 22.7L232 437.5V392h22.5c12.4 0 22.5.1 22.5.3zm15 37.2V452h-45.5l22.5-22.5c12.4-12.4 22.6-22.5 22.7-22.5.2 0 .3 10.1.3 22.5z"/><path d="M172.4 41c-3.2 1.3-6.4 5.9-6.4 9.1 0 4 4.6 8.8 9.1 9.5 3.1.5 4.2.1 7-2.4s3.4-3.7 3.4-7.2-.6-4.7-3.3-7.1c-3.3-2.9-6-3.5-9.8-1.9zM106.5 186.9c-6.2 2.6-8.1 11-3.4 15.6 1.4 1.4 4.2 2.8 6.2 3.2 3.2.5 4.1.1 7.2-3 4.7-4.7 4.8-8.6.1-13.3-3.4-3.4-6.1-4.1-10.1-2.5zM146.4 187c-3.2 1.3-6.4 5.9-6.4 9.1 0 1.8 1.1 4.1 2.9 6.1l2.9 3.3 49.6.3 49.5.3 3.3-3c2.7-2.4 3.3-3.6 3.3-7.1 0-3.5-.6-4.7-3.3-7.1L245 186l-48.3.1c-26.5 0-49.2.4-50.3.9zM106.5 252.9c-6.4 2.7-8.1 11-3.2 15.8l2.7 2.8 69.5.3 69.4.2 3.3-2.9c2.7-2.4 3.3-3.6 3.3-7.1 0-3.5-.6-4.7-3.3-7.1L245 252l-68.3.1c-37.5 0-69.1.4-70.2.8zM106.5 292.9c-6.4 2.7-8.1 11-3.2 15.8l2.7 2.8 69.5.3 69.4.2 3.3-2.9c2.7-2.4 3.3-3.6 3.3-7.1 0-3.5-.6-4.7-3.3-7.1L245 292l-68.3.1c-37.5 0-69.1.4-70.2.8zM106.5 332.9c-6.4 2.7-8.1 11-3.2 15.8l2.7 2.8 69.5.3 69.4.2 3.3-2.9c2.7-2.4 3.3-3.6 3.3-7.1 0-3.5-.6-4.7-3.3-7.1L245 332l-68.3.1c-37.5 0-69.1.4-70.2.8zM422.5 47.7c-9.4 3.4-16.3 10.5-19.1 19.9-.9 3.1-1.4 9.4-1.4 18.4 0 11.9-.3 14.1-1.9 16.1-2.8 3.7-5.3 8.9-6.7 14.4-1.1 4.1-1.4 32.3-1.4 149.4 0 160-.2 155.7 6.5 175.8 4.2 12.6 10 24.2 17.6 35.4l5.9 8.6v9.6c0 9.1.2 9.8 2.8 12.7 1.7 1.9 4 3.3 6.3 3.6 3.1.5 4.2.1 7-2.4 3.4-3 3.4-3.1 3.9-13.9l.6-10.8 5.6-8.1c11.5-16.3 19.3-35.8 22.2-55.6 1.4-9.2 1.6-26.8 1.6-132.8V165.8l7 .4c6 .3 7.4.8 9.8 3.1l2.7 2.7.5 44 .5 44 2.6 2.5c1.4 1.4 4.1 2.8 6.1 3.1 3 .5 4.1.1 6.9-2.4l3.4-3v-45.9c0-44.8 0-45.9-2.1-50.4-1.2-2.6-4.1-6.6-6.4-8.9-6-6-11.7-8.3-22.2-8.8l-8.8-.4v-12.2c0-15.2-2.5-24.8-7.9-31-1.3-1.4-1.7-5-2.1-18-.6-18.5-1.8-22.4-9-29.6-8-8-20.3-10.9-30.5-7.3zM439 69.5c2.1 2.1 2.5 3.6 2.8 9.8l.4 7.2h-20.4l.4-7.2c.3-7.4 1.9-10.5 6.3-12.4 3.1-1.3 7.7-.1 10.5 2.6zm3.9 40c2.6 1.8 4.9 4.5 6.6 7.8 2.2 4.6 2.5 6.3 2.5 16.9V146h-40.2l.4-13.3c.3-12.6.5-13.4 3.2-17.4 6.1-9.2 18.5-11.7 27.5-5.8zM452 279v113h-40V166h40v113zm-1.4 138.7c-1 7.9-4.2 19.4-7.8 27.8-3.3 7.6-9.7 18.5-10.8 18.5-1.1 0-7.5-10.9-10.8-18.5-3.6-8.4-6.8-19.9-7.8-27.8l-.6-5.7h38.4l-.6 5.7z"/></svg>
